<svg xmlns="http://www.w3.org/2000/svg" width="1920" height="1080" viewBox="0 0 1920 1080"><defs><filter id="s"><feDropShadow dx="0" dy="12" stdDeviation="14" flood-color="#24324A" flood-opacity=".16"/></filter><linearGradient id="bg" x1="0" y1="0" x2="1" y2="1"><stop stop-color="#F8FAFD"/><stop offset="1" stop-color="#E7EDF5"/></linearGradient></defs><ellipse cx="960" cy="980" rx="230" ry="40" fill="#263448" opacity=".15"/><g filter="url(#s)"><circle cx="960" cy="285" r="140" fill="#F2C7A5"/><path d="M825 280c10-150 285-170 300 20-70-70-205-65-300-20z" fill="#263448"/><circle cx="910" cy="300" r="12" fill="#263448"/><circle cx="1010" cy="300" r="12" fill="#263448"/><path d="M905 360q55 48 110 0" fill="none" stroke="#9B5A4A" stroke-width="10" stroke-linecap="round"/><rect x="790" y="430" width="340" height="370" rx="95" fill="#5D7CFF"/><path d="M825 500L650 700M1095 500l175 200" stroke="#F2C7A5" stroke-width="70" stroke-linecap="round"/><path d="M875 790l-70 170M1045 790l70 170" stroke="#263448" stroke-width="82" stroke-linecap="round"/></g></svg>